<svg width="44" height="50" viewBox="0 0 44 50" fill="none" xmlns="http://www.w3.org/2000/svg">
<path d="M23.8965 8.74657C23.5031 8.74731 23.1591 8.48162 23.0604 8.1008C22.9617 7.71998 23.1333 7.32064 23.4775 7.13019C30.0672 3.47501 38.1172 0.750872 40.9439 4.07846C41.2534 4.44125 41.2102 4.98623 40.8474 5.2957C40.4846 5.60517 39.9396 5.56194 39.6301 5.19915C38.1784 3.49312 32.4517 4.12674 24.3137 8.64226C24.1856 8.7114 24.0421 8.74727 23.8965 8.74657Z" fill="#E57E25"/>
<path d="M3.24982 31.6981C2.89633 31.6983 2.57854 31.4827 2.4481 31.1541C1.26793 28.1843 3.9412 23.0757 9.60327 17.486C9.94701 17.1871 10.464 17.2072 10.7835 17.5319C11.103 17.8566 11.1147 18.3739 10.8102 18.7127C5.13 24.3248 3.32224 28.6852 4.04982 30.517C4.15552 30.7824 4.12288 31.083 3.96267 31.3195C3.80246 31.556 3.53549 31.6978 3.24982 31.6981Z" fill="#E57E25"/>
<path d="M20.3267 8.87177C20.1794 8.87181 20.0346 8.83412 19.906 8.76229C11.5284 4.06574 6.03617 3.56143 4.47496 5.07608C4.13407 5.40936 3.58755 5.40318 3.25427 5.06229C2.921 4.7214 2.92717 4.17487 3.26807 3.8416C6.33272 0.85884 14.3025 3.65022 20.7413 7.25712C21.0843 7.4487 21.2543 7.84787 21.1549 8.22789C21.0555 8.60791 20.7117 8.87267 20.3189 8.87177H20.3267Z" fill="#E57E25"/>
<path d="M40.7834 31.6118C40.5028 31.6118 40.2398 31.4752 40.0784 31.2457C39.917 31.0162 39.8773 30.7225 39.9722 30.4584C40.7851 28.1972 38.123 23.5868 33.1894 18.7127C32.8599 18.3766 32.8608 17.8384 33.1915 17.5035C33.5222 17.1685 34.0604 17.1608 34.4006 17.486C39.9774 22.9955 42.6662 28.0627 41.5937 31.0412C41.4709 31.3832 41.1468 31.6114 40.7834 31.6118Z" fill="#E57E25"/>
<path d="M15.1035 43.103H12.5173C12.0412 43.103 11.6553 42.7171 11.6553 42.241C11.6553 41.7649 12.0412 41.3789 12.5173 41.3789H15.1035C15.5797 41.3789 15.9656 41.7649 15.9656 42.241C15.9656 42.7171 15.5797 43.103 15.1035 43.103Z" fill="#7F8284"/>
<path d="M31.4829 43.103H28.8967C28.4206 43.103 28.0347 42.7171 28.0347 42.241C28.0347 41.7649 28.4206 41.3789 28.8967 41.3789H31.4829C31.959 41.3789 32.345 41.7649 32.345 42.241C32.345 42.7171 31.959 43.103 31.4829 43.103Z" fill="#7F8284"/>
<path d="M37.4483 20.4655C37.1068 24.0008 35.5571 27.3102 33.0603 29.8362C30.436 32.4348 28.9402 35.9622 28.8966 39.6552H15.1035C15.0974 37.8279 14.719 36.021 13.9914 34.3448C13.262 32.666 12.2272 31.1373 10.9397 29.8362C6.9684 25.8076 5.50743 19.9353 7.128 14.5155C8.74857 9.09561 13.1932 4.98916 18.7241 3.80172C19.1224 3.72045 19.4098 3.37199 19.4138 2.96552V2.58621C19.4138 1.15788 20.5717 0 22 0C23.4283 0 24.5862 1.15788 24.5862 2.58621V2.96552C24.5902 3.37199 24.8776 3.72045 25.2759 3.80172C32.9741 5.46264 38.2073 12.6268 37.4483 20.4655Z" fill="#F0C419"/>
<path d="M34.6915 20.4655C34.4582 23.8803 33.2019 27.1456 31.0863 29.8362C28.8632 32.6253 27.6567 36.0885 27.6657 39.6552H16.3346C16.3329 37.8461 16.0239 36.0504 15.4208 34.3448C14.8463 32.7109 13.9987 31.1864 12.9139 29.8362C10.7984 27.1456 9.54213 23.8803 9.30876 20.4655C8.68549 12.3707 13.176 5.39655 19.3088 3.80172C19.6628 3.68038 19.8938 3.33933 19.8751 2.96552V2.58621C19.7587 1.28858 20.7046 0.1374 22.0001 0C22.5896 0.0131824 23.1415 0.291993 23.5019 0.758621C23.9131 1.27829 24.1332 1.92355 24.1251 2.58621V2.96552C24.1065 3.33933 24.3375 3.68038 24.6915 3.80172C30.8243 5.39655 35.3148 12.3707 34.6915 20.4655Z" fill="#F3D55B"/>
<path d="M28.8966 39.6553V44.8277C28.8938 45.7787 28.1235 46.549 27.1725 46.5518H16.8277C15.8766 46.549 15.1064 45.7787 15.1035 44.8277V39.6553H28.8966Z" fill="#95A5A5"/>
<path d="M26.3102 46.9828C26.3102 48.6466 24.3791 50 21.9998 50C19.6205 50 17.6895 48.6466 17.6895 46.9828C17.6891 46.8375 17.7065 46.6928 17.7412 46.5518H26.2584C26.2931 46.6928 26.3105 46.8375 26.3102 46.9828Z" fill="#393F4A"/>
<path d="M7.12644 33.6207C5.86278 33.6904 4.61173 33.3387 3.56954 32.6207C3.3101 32.4373 3.17257 32.1261 3.21164 31.8107C3.2507 31.4954 3.46003 31.2272 3.75638 31.1126C4.05273 30.9981 4.38806 31.0559 4.62902 31.2629C5.86523 32.2259 8.64196 32.0948 12.2471 30.9052C15.5061 29.7857 18.6277 28.3007 21.5523 26.4784C22.6868 25.7888 23.7937 25.0655 24.854 24.3345C29.0954 21.4655 32.9302 18.0375 36.2549 14.1431C39.067 10.7164 40.4678 7.65776 40.0032 5.96034C39.8811 5.50246 40.1515 5.03188 40.6085 4.90677C41.0656 4.78167 41.538 5.04894 41.6661 5.50517C42.4739 8.45603 39.8945 12.4259 37.5885 15.2362C34.1617 19.2548 30.2082 22.7925 25.8351 25.7534C24.7514 26.5034 23.6126 27.2431 22.4489 27.9526C19.4105 29.8436 16.1677 31.3841 12.7825 32.5448C10.9627 33.1887 9.05549 33.5514 7.12644 33.6207Z" fill="#F29C1F"/>
<path d="M36.8704 33.6276C34.9397 33.5619 33.0309 33.1961 31.2127 32.5432C27.8296 31.3825 24.5889 29.8425 21.5523 27.9526C20.3868 27.2423 19.248 26.5026 18.1644 25.7518C13.7909 22.7909 9.83714 19.2532 6.41008 15.2345C4.07646 12.3897 1.47905 8.38022 2.35836 5.42505C2.49665 4.97202 2.97454 4.71543 3.42856 4.85043C3.88258 4.98543 4.14264 5.46144 4.01094 5.91643C3.51008 7.60522 4.90577 10.6802 7.74629 14.1414C11.0704 18.036 14.9047 21.4643 19.1454 24.3337C20.2023 25.0656 21.3127 25.788 22.4489 26.4794C25.3715 28.3006 28.4911 29.7847 31.748 30.9035C35.523 32.1492 38.4368 32.2251 39.5463 31.1069C39.8819 30.7691 40.4279 30.7674 40.7657 31.1031C41.1035 31.4387 41.1052 31.9847 40.7696 32.3225C39.6984 33.2644 38.2928 33.7349 36.8704 33.6276Z" fill="#F29C1F"/>
<path d="M3.46548 34.4827C5.13186 34.4827 6.48272 33.1319 6.48272 31.4655C6.48272 29.7991 5.13186 28.4482 3.46548 28.4482C1.79911 28.4482 0.448242 29.7991 0.448242 31.4655C0.448242 33.1319 1.79911 34.4827 3.46548 34.4827Z" fill="#3B97D3"/>
<path d="M3.46548 7.75811C5.13186 7.75811 6.48272 6.40725 6.48272 4.74087C6.48272 3.0745 5.13186 1.72363 3.46548 1.72363C1.79911 1.72363 0.448242 3.0745 0.448242 4.74087C0.448242 6.40725 1.79911 7.75811 3.46548 7.75811Z" fill="#3B97D3"/>
<path d="M40.5343 34.4827C42.2007 34.4827 43.5516 33.1319 43.5516 31.4655C43.5516 29.7991 42.2007 28.4482 40.5343 28.4482C38.868 28.4482 37.5171 29.7991 37.5171 31.4655C37.5171 33.1319 38.868 34.4827 40.5343 34.4827Z" fill="#3B97D3"/>
<path d="M40.5343 7.75811C42.2007 7.75811 43.5516 6.40725 43.5516 4.74087C43.5516 3.0745 42.2007 1.72363 40.5343 1.72363C38.868 1.72363 37.5171 3.0745 37.5171 4.74087C37.5171 6.40725 38.868 7.75811 40.5343 7.75811Z" fill="#3B97D3"/>
<path d="M11.2112 14.4337C10.9123 14.4336 10.6347 14.2788 10.4777 14.0245C10.3206 13.7701 10.3066 13.4526 10.4405 13.1854C12.0592 9.94344 14.9645 7.52986 18.4482 6.5328C18.7479 6.43744 19.0757 6.51281 19.3036 6.72945C19.5315 6.9461 19.6234 7.26966 19.5433 7.57376C19.4633 7.87785 19.224 8.11422 18.9189 8.19056C15.9009 9.05564 13.3845 11.1477 11.9827 13.9569C11.8367 14.2492 11.5379 14.4338 11.2112 14.4337Z" fill="white"/>
</svg>
