<svg width="50" height="50" viewBox="0 0 50 50" fill="none" xmlns="http://www.w3.org/2000/svg">
<path d="M26.5688 46.8488C25.4999 46.8488 24.8625 45.7898 25.1921 44.8831L31.468 27.6239C31.7446 26.8636 32.5854 26.4714 33.3456 26.7476C34.1059 27.0242 34.498 27.865 34.2215 28.6252L27.9455 45.8841C27.7289 46.4792 27.1673 46.8488 26.5688 46.8488Z" fill="#3AB4FB"/>
<path d="M42.2593 46.8488C41.6627 46.8488 41.1019 46.4814 40.8841 45.8886L34.5452 28.6294C34.2664 27.8699 34.6562 27.0284 35.4153 26.7495C36.1745 26.4703 37.0164 26.8601 37.2952 27.6193L43.6341 44.8785C43.9912 45.8505 43.2587 46.8488 42.2593 46.8488Z" fill="#1D9CFD"/>
<path d="M45.3975 3.125H23.4306C20.8888 3.125 18.8281 5.1857 18.8281 7.72743V24.9874C18.8281 27.5291 20.8888 29.5898 23.4306 29.5898H45.3975C47.9392 29.5898 49.9999 27.5291 49.9999 24.9874V7.72743C49.9999 5.1857 47.9392 3.125 45.3975 3.125Z" fill="#EFF6FE"/>
<path d="M45.3976 3.125H34.2217V29.5898H45.3976C47.9393 29.5898 50 27.5291 50 24.9874V7.72743C50 5.1857 47.9393 3.125 45.3976 3.125Z" fill="#D9E4EF"/>
<path d="M15.6898 12.4352C15.6898 15.9588 12.8334 18.8152 9.30977 18.8152C5.78613 18.8152 2.92969 15.9588 2.92969 12.4352C2.92969 8.91113 5.78613 6.05469 9.30977 6.05469C12.8334 6.05469 15.6898 8.91113 15.6898 12.4352Z" fill="#FFCFBE"/>
<path d="M23.5604 27.8667C22.8368 27.5046 22.5438 26.625 22.9054 25.9013L26.8281 18.056C27.1901 17.3324 28.0701 17.0394 28.7934 17.401C29.517 17.763 29.81 18.6427 29.4484 19.3664L25.5257 27.2113C25.1633 27.9361 24.2829 28.2279 23.5604 27.8667Z" fill="#FFB826"/>
<path d="M15.6908 12.4355C15.6908 15.9592 12.8344 18.8156 9.30957 18.8156V6.05469C12.8344 6.05469 15.6908 8.91113 15.6908 12.4355Z" fill="#F9BCAA"/>
<path d="M42.2591 11.5469H26.5688C25.7598 11.5469 25.104 10.8907 25.104 10.082C25.104 9.27293 25.7598 8.61719 26.5688 8.61719H42.2591C43.0678 8.61719 43.7239 9.27293 43.7239 10.082C43.7239 10.8907 43.0682 11.5469 42.2591 11.5469Z" fill="#3AB4FB"/>
<path d="M42.2592 17.8223H35.6865C34.8774 17.8223 34.2217 17.1665 34.2217 16.3574C34.2217 15.5483 34.8774 14.8926 35.6865 14.8926H42.2592C43.0683 14.8926 43.7241 15.5483 43.7241 16.3574C43.7241 17.1665 43.0683 17.8223 42.2592 17.8223Z" fill="#1D9CFD"/>
<path d="M42.2592 24.0986H35.6865C34.8774 24.0986 34.2217 23.4425 34.2217 22.6338C34.2217 21.8247 34.8774 21.1689 35.6865 21.1689H42.2592C43.0683 21.1689 43.7241 21.8247 43.7241 22.6338C43.7241 23.4425 43.0683 24.0986 42.2592 24.0986Z" fill="#1D9CFD"/>
<path d="M42.2592 8.61719H34.2217V11.5469H42.2592C43.0683 11.5469 43.7241 10.8907 43.7241 10.082C43.7241 9.27293 43.0683 8.61719 42.2592 8.61719Z" fill="#1D9CFD"/>
<path d="M14.0167 46.8493H4.60281C3.79372 46.8493 3.13797 46.1935 3.13797 45.3844V37.1962C1.31569 36.5831 0 34.8585 0 32.8322V28.1252C0 25.6346 0.969315 23.2962 2.72903 21.541C4.45557 19.8099 6.85501 18.8154 9.31015 18.8154H10.6045C13.1741 18.8154 14.6801 19.7565 16.7908 20.8059C19.1151 21.9618 22.015 23.4037 23.8644 24.325C25.5707 25.173 26.3878 27.1616 25.7736 28.9618C25.7717 28.9675 25.7698 28.9732 25.7679 28.9789C25.3983 30.0722 24.5697 30.953 23.4943 31.3955C22.4155 31.8346 21.2067 31.7881 20.1714 31.2704C18.6951 30.5319 16.8705 29.6198 15.4819 28.9259V45.3844C15.4816 46.1935 14.8258 46.8493 14.0167 46.8493Z" fill="#FF7579"/>
<path d="M23.8645 24.325C22.0152 23.4037 19.1152 21.9618 16.7906 20.8059C14.6803 19.7565 13.1742 18.8154 10.6047 18.8154H9.30995C9.30995 18.8154 9.30995 18.8154 9.30957 18.8154V46.8493H14.0169C14.826 46.8493 15.4818 46.1935 15.4818 45.3844V28.9259C16.8707 29.6198 18.6953 30.5319 20.1715 31.2704C21.2065 31.7881 22.4157 31.8342 23.4941 31.3955C24.5695 30.953 25.3984 30.0722 25.7681 28.9785C25.77 28.9728 25.7719 28.9671 25.7738 28.9614C26.388 27.1616 25.5709 25.173 23.8645 24.325Z" fill="#FE4A60"/>
</svg>
