<svg width="18" height="14" viewBox="0 0 18 14" fill="none" xmlns="http://www.w3.org/2000/svg">
<path d="M2.75321 0.124023C2.75272 0.124023 2.75218 0.124023 2.75169 0.124023C2.58145 0.124023 2.42133 0.190387 2.30042 0.310994C2.17817 0.432933 2.11084 0.595297 2.11084 0.768146V10.4267C2.11084 10.7808 2.40011 11.0697 2.75575 11.0706C4.25503 11.0742 6.76692 11.3867 8.49978 13.2001V3.09215C8.49978 2.97209 8.46911 2.8593 8.41123 2.76597C6.98898 0.475539 4.25588 0.127539 2.75321 0.124023Z" fill="white"/>
<path d="M15.8889 10.4267V0.768147C15.8889 0.595298 15.8215 0.432933 15.6993 0.310994C15.5784 0.190387 15.4181 0.124023 15.2481 0.124023C15.2475 0.124023 15.247 0.124023 15.2465 0.124023C13.7439 0.127599 11.0108 0.4756 9.58848 2.76603C9.53061 2.85937 9.5 2.97215 9.5 3.09222V13.2001C11.2329 11.3867 13.7447 11.0742 15.244 11.0706C15.5996 11.0697 15.8889 10.7808 15.8889 10.4267Z" fill="white"/>
<path d="M17.3562 2.35156H16.8891V10.4268C16.8891 11.3311 16.1524 12.0685 15.2467 12.0707C13.975 12.0738 11.8781 12.3224 10.3931 13.728C12.9614 13.0991 15.669 13.5079 17.212 13.8595C17.4047 13.9034 17.6038 13.8581 17.7581 13.7351C17.9119 13.6123 18.0002 13.4289 18.0002 13.232V2.99556C18.0002 2.64047 17.7113 2.35156 17.3562 2.35156Z" fill="white"/>
<path d="M1.11103 10.4268V2.35156H0.644002C0.288971 2.35156 0 2.64047 0 2.99556V13.2318C0 13.4288 0.0882427 13.6121 0.242061 13.7349C0.396304 13.8578 0.595214 13.9034 0.788184 13.8594C2.33122 13.5077 5.0388 13.0989 7.60706 13.7278C6.12208 12.3223 4.02523 12.0737 2.75352 12.0707C1.84788 12.0685 1.11103 11.3311 1.11103 10.4268Z" fill="white"/>
</svg>
