<svg width="50" height="50" viewBox="0 0 50 50" fill="none" xmlns="http://www.w3.org/2000/svg">
<path d="M7.4139 26.1465H5.01735C4.60497 26.1472 4.25087 26.4399 4.17252 26.8448L0.396658 46.2241C0.298685 46.7303 0.432432 47.2538 0.761216 47.651C1.09 48.0482 1.57931 48.2775 2.09493 48.2758H20.6898C20.6898 49.2241 22.6208 49.9999 25.0001 49.9999C27.3794 49.9999 29.3105 49.2241 29.3105 48.2758H47.9053C48.4209 48.2775 48.9102 48.0482 49.239 47.651C49.5678 47.2538 49.7015 46.7303 49.6036 46.2241L45.8277 26.8448C45.7493 26.4399 45.3952 26.1472 44.9829 26.1465H7.4139Z" fill="#E64C3C"/>
<path d="M25.0001 28.6548V44.8272C23.7389 44.2794 22.4244 43.8634 21.0777 43.5859C15.9584 42.4729 10.6351 42.7437 5.65525 44.3703C5.36901 44.4577 5.05798 44.3916 4.832 44.1954C4.60603 43.9992 4.49691 43.7005 4.54318 43.4048L7.41387 26.1462L7.65525 24.6893C7.71703 24.3196 8.00894 24.0311 8.37939 23.9738C8.96559 23.8876 9.56904 23.8014 10.1725 23.7324C11.2259 25.7802 13.3352 27.0677 15.638 27.0686C15.7932 27.0686 15.9397 27.06 16.0863 27.0514C16.6603 27.0066 17.2257 26.8848 17.7673 26.6893C17.7691 26.7076 17.775 26.7253 17.7846 26.741C18.4296 28.5477 20.1421 29.7526 22.0604 29.7497C23.1406 29.7532 24.1854 29.3642 25.0001 28.6548Z" fill="#F5EFCA"/>
<path d="M44.3448 44.3702C39.3649 42.7436 34.0416 42.4728 28.9224 43.5858C27.5757 43.8633 26.2612 44.2793 25 44.8271V28.6547C25.1813 28.5065 25.3487 28.342 25.5 28.1633C26.3613 28.5059 27.28 28.6815 28.2069 28.6806H28.2586C28.3034 29.297 28.5383 29.8843 28.931 30.3616C29.7678 31.1888 30.8137 31.7728 31.9569 32.0513C32.7864 32.3161 33.5264 32.8054 34.0948 33.4651C34.6016 34.0928 35.4602 34.3136 36.2069 34.0082C36.8642 33.7242 37.2908 33.0776 37.2931 32.3616C37.294 32.1743 37.2649 31.988 37.2069 31.8099C37.1207 31.5426 37.0259 31.2754 36.9138 31.0168C36.6976 30.4826 36.4137 29.9785 36.069 29.5168C37.7787 28.5921 38.9794 26.9447 39.3362 25.034C39.3621 24.9995 39.3966 24.965 39.4224 24.9306C39.7174 24.5835 39.9586 24.1941 40.1379 23.7754C40.6379 23.8357 41.1293 23.8961 41.6207 23.9737C41.9911 24.031 42.283 24.3195 42.3448 24.6892L42.5862 26.1461L45.4569 43.4047C45.5032 43.7004 45.3941 43.9991 45.1681 44.1952C44.9421 44.3914 44.6311 44.4576 44.3448 44.3702Z" fill="#F9EAB0"/>
<path d="M29.3106 48.2756C29.3106 49.2238 27.3796 49.9997 25.0003 49.9997C22.621 49.9997 20.6899 49.2238 20.6899 48.2756L21.0779 43.5859C22.4246 43.8635 23.7391 44.2795 25.0003 44.8273C26.2615 44.2795 27.5759 43.8635 28.9227 43.5859L29.3106 48.2756Z" fill="#C03A2B"/>
<path d="M40.5174 21.9743C40.5166 22.5947 40.3875 23.2081 40.1381 23.7761C39.9588 24.1948 39.7176 24.5842 39.4226 24.9312C39.3968 24.9657 39.3623 25.0002 39.3364 25.0347C38.9796 26.9454 37.7789 28.5928 36.0692 29.5174C36.4139 29.9792 36.6978 30.4833 36.914 31.0174C37.0261 31.2761 37.1209 31.5433 37.2071 31.8106C37.2651 31.9887 37.2942 32.1749 37.2933 32.3623C37.291 33.0783 36.8644 33.7249 36.2071 34.0088C35.4604 34.3143 34.6018 34.0935 34.095 33.4657C33.5266 32.8061 32.7866 32.3168 31.9571 32.0519C30.8139 31.7735 29.768 31.1894 28.9312 30.3623C28.5385 29.885 28.3036 29.2977 28.2588 28.6812H28.2071C27.2802 28.6821 26.3615 28.5066 25.5002 28.164C25.3489 28.3427 25.1815 28.5072 25.0002 28.6554C24.1855 29.3647 23.1408 29.7538 22.0606 29.7502C20.1422 29.7532 18.4297 28.5482 17.7847 26.7416C17.7751 26.7259 17.7692 26.7082 17.7674 26.6899C17.2259 26.8854 16.6605 27.0071 16.0864 27.0519C15.9399 27.0605 15.7933 27.0692 15.6381 27.0692C13.3082 27.0675 11.1786 25.7514 10.1351 23.6681C9.09171 21.5849 9.31305 19.0912 10.7071 17.2243C10.6034 16.9428 10.5509 16.645 10.5519 16.345C10.5467 15.071 11.4416 13.9705 12.6899 13.7157C12.6945 13.711 12.7006 13.708 12.7071 13.7071C12.6985 13.6037 12.6899 13.5002 12.6899 13.3881C12.6887 12.91 12.7886 12.437 12.983 12.0002C13.533 10.7281 14.7867 9.90472 16.1726 9.90537C16.6953 9.90289 17.2115 10.0209 17.6812 10.2502C18.599 8.70504 20.2634 7.75817 22.0606 7.75882C23.2936 7.75435 24.4848 8.20566 25.4054 9.02606C25.9338 8.17365 26.8951 7.68887 27.8947 7.77066C28.8942 7.85244 29.7639 8.48701 30.1468 9.41399C30.3929 9.3865 30.6404 9.37211 30.8881 9.37089C34.2283 9.37642 37.0079 11.9388 37.2847 15.2674H37.3106C38.0208 15.2674 38.7019 15.5502 39.2033 16.0532C39.7047 16.5563 39.9853 17.2382 39.983 17.9485C39.9813 18.4129 39.8627 18.8695 39.6381 19.2761C40.2102 20.0594 40.5182 21.0044 40.5174 21.9743Z" fill="#FB7B76"/>
<path d="M25.0002 2.58621C24.5241 2.58621 24.1382 2.20025 24.1382 1.72414V0.862069C24.1382 0.385961 24.5241 0 25.0002 0C25.4764 0 25.8623 0.385961 25.8623 0.862069V1.72414C25.8623 2.20025 25.4764 2.58621 25.0002 2.58621Z" fill="#F0C419"/>
<path d="M38.8941 8.51967C38.5455 8.5196 38.2313 8.30956 38.0979 7.98748C37.9645 7.6654 38.0382 7.29467 38.2847 7.04812L39.1467 6.18605C39.3632 5.96195 39.6837 5.87208 39.9851 5.95097C40.2865 6.02986 40.5219 6.26525 40.6008 6.56665C40.6797 6.86805 40.5898 7.18858 40.3657 7.40502L39.5036 8.26709C39.342 8.42877 39.1228 8.51963 38.8941 8.51967Z" fill="#F0C419"/>
<path d="M11.1063 8.51967C10.8777 8.51963 10.6585 8.42877 10.4969 8.26709L9.63478 7.40502C9.41068 7.18858 9.32081 6.86805 9.3997 6.56665C9.47859 6.26525 9.71398 6.02986 10.0154 5.95097C10.3168 5.87208 10.6373 5.96195 10.8537 6.18605L11.7158 7.04812C11.9623 7.29467 12.036 7.6654 11.9026 7.98748C11.7692 8.30956 11.455 8.5196 11.1063 8.51967Z" fill="#F0C419"/>
<path d="M17.7425 4.89161C17.3939 4.8917 17.0795 4.68177 16.946 4.35971L15.9563 1.97006C15.8305 1.68413 15.8692 1.3525 16.0575 1.10323C16.2458 0.853962 16.5542 0.726057 16.8636 0.768907C17.1731 0.811757 17.4351 1.01866 17.5486 1.30971L18.5391 3.69937C18.627 3.91072 18.6272 4.14835 18.5397 4.35987C18.4522 4.57139 18.2842 4.73943 18.0727 4.82695C17.9679 4.86968 17.8557 4.89164 17.7425 4.89161Z" fill="#F0C419"/>
<path d="M32.2578 4.89161C32.1446 4.89136 32.0324 4.86911 31.9277 4.82609C31.7164 4.73857 31.5485 4.57067 31.461 4.35935C31.3736 4.14803 31.3737 3.91062 31.4613 3.69937L32.4518 1.30971C32.5653 1.01866 32.8273 0.811757 33.1368 0.768907C33.4462 0.726057 33.7546 0.853962 33.9429 1.10323C34.1312 1.3525 34.1699 1.68413 34.0441 1.97006L33.0544 4.35971C32.9209 4.68177 32.6065 4.8917 32.2578 4.89161Z" fill="#F0C419"/>
<path d="M42.5215 15.1571C42.1093 15.1583 41.7538 14.8676 41.6734 14.4632C41.593 14.0589 41.81 13.6542 42.1913 13.4976L44.581 12.5079C44.8656 12.3901 45.1914 12.4331 45.4357 12.6207C45.68 12.8082 45.8057 13.1119 45.7655 13.4172C45.7252 13.7226 45.5251 13.9832 45.2405 14.101L42.8517 15.0907C42.7471 15.1343 42.6349 15.1569 42.5215 15.1571Z" fill="#F0C419"/>
<path d="M7.47839 15.1571C7.36504 15.1569 7.25285 15.1343 7.14822 15.0907L4.75943 14.101C4.47485 13.9832 4.27473 13.7226 4.23447 13.4172C4.1942 13.1118 4.31989 12.8082 4.56421 12.6207C4.80852 12.4331 5.13433 12.3901 5.41891 12.5079L7.80857 13.4976C8.18989 13.6542 8.40696 14.0589 8.32652 14.4632C8.24607 14.8676 7.89064 15.1583 7.47839 15.1571Z" fill="#F0C419"/>
<path d="M39.4224 24.9312C39.3965 24.9657 39.362 25.0002 39.3362 25.0347C39.1843 25.8649 38.8677 26.6563 38.4051 27.3623C37.9537 27.4904 37.4864 27.5542 37.0172 27.5519C36.1629 27.5495 35.3211 27.3457 34.5603 26.9571C34.2001 26.7643 33.8619 26.5331 33.5517 26.2674C33.2078 26.4006 32.8428 26.4707 32.4741 26.4743C31.3354 26.4802 30.2923 25.8383 29.7844 24.8191C29.6458 24.5435 29.6648 24.2148 29.8342 23.957C30.0037 23.6991 30.2978 23.5513 30.6058 23.5691C30.9138 23.5869 31.1889 23.7676 31.3275 24.0433C31.4978 24.3701 31.7994 24.6088 32.1567 24.6994C32.5139 24.7899 32.8928 24.7237 33.1982 24.5174C33.543 24.2821 33.7495 23.8918 33.7499 23.4743C33.7512 23.2745 33.707 23.0769 33.6206 22.8967C33.4471 22.4799 33.6245 21.9997 34.0275 21.796C34.4304 21.5923 34.9223 21.734 35.1551 22.1209C35.3647 22.5412 35.4739 23.0046 35.4741 23.4743C35.4671 24.0767 35.2778 24.6628 34.931 25.1553C35.0689 25.2502 35.2068 25.345 35.3448 25.4226C35.862 25.6889 36.4354 25.8278 37.0172 25.8278C37.9015 25.8327 38.757 25.5138 39.4224 24.9312Z" fill="#FF5364"/>
<path d="M28.8791 21.5462C29.9959 20.7768 30.7638 19.5977 31.0162 18.2652C31.0803 17.9601 30.9748 17.6442 30.7402 17.4389C30.5056 17.2336 30.1785 17.171 29.8847 17.2751C29.5908 17.3792 29.3761 17.6338 29.3231 17.941C29.154 18.8302 28.641 19.6167 27.8955 20.1298C26.4612 21.0958 24.5376 20.8766 23.3575 19.6126C23.0364 19.2603 22.4905 19.235 22.1382 19.5561C21.7858 19.8773 21.7606 20.4232 22.0817 20.7755C22.813 21.5829 23.7795 22.1402 24.8446 22.3686C24.3617 23.0474 23.5794 23.4498 22.7463 23.4479C22.2702 23.4479 21.8843 23.8339 21.8843 24.31C21.8843 24.7861 22.2702 25.1721 22.7463 25.1721C24.531 25.1792 26.1322 24.077 26.7627 22.4074C27.5234 22.281 28.2463 21.9868 28.8791 21.5462Z" fill="#FF5364"/>
<path d="M36.9139 31.0176C36.2802 31.3409 35.5994 31.5621 34.8967 31.6728C34.8511 31.6799 34.8049 31.6828 34.7587 31.6814C34.3047 31.6856 33.9253 31.3369 33.8911 30.8841C33.857 30.4314 34.1799 30.0298 34.6294 29.9659C35.1292 29.8902 35.6147 29.7391 36.0691 29.5176C36.4138 29.9793 36.6977 30.4834 36.9139 31.0176Z" fill="#FF5364"/>
<path d="M17.7067 25.0001C17.6632 25.242 17.6402 25.4871 17.6378 25.7329C17.636 26.0563 17.6796 26.3784 17.7671 26.6898C17.2255 26.8853 16.6601 27.007 16.0861 27.0518C15.9757 26.6295 15.9178 26.1952 15.9136 25.7587C14.3951 25.5931 13.2441 24.3121 13.2412 22.7846C13.2383 22.3045 13.6232 21.9119 14.1033 21.9053C14.3309 21.9039 14.5496 21.9931 14.7113 22.1532C14.8731 22.3133 14.9645 22.5312 14.9654 22.7587V22.7846C14.9783 23.4658 15.5175 24.0202 16.1981 24.0518C16.3173 23.663 16.4823 23.2897 16.6895 22.9398C16.8053 22.7421 16.9959 22.5995 17.2183 22.5443C17.4406 22.4891 17.6758 22.5261 17.8705 22.6467C18.2759 22.8972 18.4062 23.4261 18.1636 23.8363C17.9447 24.1947 17.7901 24.5885 17.7067 25.0001Z" fill="#FF5364"/>
<path d="M30.5255 30.0428C30.0076 30.2085 29.4726 30.3155 28.9307 30.3618C28.538 29.8845 28.3031 29.2972 28.2583 28.6807C28.3417 28.6823 28.4252 28.6795 28.5083 28.6721C29.0203 28.6396 29.5266 28.5471 30.0169 28.3963C30.3142 28.2943 30.6435 28.3622 30.8762 28.5735C31.1089 28.7849 31.2081 29.1061 31.1351 29.4118C31.0622 29.7176 30.8286 29.9593 30.5255 30.0428Z" fill="#FF5364"/>
<path d="M23.1035 14.655C23.1035 14.1789 22.7175 13.793 22.2414 13.793C20.0523 13.7953 18.2783 15.5694 18.2759 17.7585C18.2759 18.2346 18.6618 18.6206 19.1379 18.6206C19.6141 18.6206 20 18.2346 20 17.7585C20 17.164 20.2362 16.5939 20.6565 16.1736C21.0768 15.7533 21.6469 15.5171 22.2414 15.5171C22.7175 15.5171 23.1035 15.1311 23.1035 14.655Z" fill="#FF5364"/>
<path d="M11.8516 19.5026C11.6951 19.5028 11.5415 19.4598 11.4077 19.3785C10.6968 18.9495 10.159 18.2847 9.88785 17.5C9.7567 17.1269 9.68995 16.7343 9.69043 16.3388C9.69042 14.3851 11.2712 12.7997 13.2249 12.794C14.3444 12.7897 15.3983 13.3213 16.0603 14.2241C16.244 14.4715 16.2818 14.798 16.1595 15.0808C16.0371 15.3635 15.7733 15.5595 15.4672 15.595C15.1612 15.6304 14.8595 15.4999 14.6758 15.2526C14.3379 14.7916 13.8 14.5199 13.2284 14.5216C12.4124 14.5261 11.699 15.0728 11.4824 15.8595C11.2658 16.6462 11.5987 17.4809 12.2973 17.9026C12.6295 18.1023 12.7875 18.4992 12.6836 18.8726C12.5796 19.246 12.2392 19.5041 11.8516 19.5035V19.5026Z" fill="#FF5364"/>
<path d="M30.3506 11.3029C29.8745 11.3029 29.4886 10.9169 29.4886 10.4408C29.4886 9.43933 28.6767 8.62746 27.6752 8.62746C26.6737 8.62746 25.8618 9.43933 25.8618 10.4408C25.8618 10.9169 25.4759 11.3029 24.9998 11.3029C24.5237 11.3029 24.1377 10.9169 24.1377 10.4408C24.1377 8.48711 25.7215 6.90332 27.6752 6.90332C29.6289 6.90332 31.2127 8.48711 31.2127 10.4408C31.2127 10.6695 31.1219 10.8887 30.9602 11.0504C30.7985 11.2121 30.5793 11.3029 30.3506 11.3029Z" fill="#FF5364"/>
<path d="M38.4371 21.2429C38.0368 21.239 37.6919 20.96 37.6043 20.5695C37.5167 20.1789 37.7095 19.7794 38.0698 19.6049C38.4134 19.4435 38.6985 19.1797 38.8862 18.8498C39.3248 18.1024 39.1722 17.149 38.5223 16.5758C37.8724 16.0026 36.9074 15.9704 36.2207 16.4989C35.8398 16.7846 35.2994 16.7074 35.0138 16.3265C34.7281 15.9456 34.8053 15.4053 35.1862 15.1196C35.7895 14.6629 36.5244 14.4137 37.281 14.4093C38.9465 14.398 40.3952 15.548 40.762 17.1726C41.1288 18.7973 40.3148 20.4582 38.806 21.1636C38.6905 21.2173 38.5644 21.2444 38.4371 21.2429Z" fill="#FF5364"/>
</svg>
