<svg width="31" height="30" viewBox="0 0 31 30" fill="none" xmlns="http://www.w3.org/2000/svg">
<path d="M16.6725 8.23552C15.9284 8.97801 14.7224 8.97801 13.9783 8.23552C13.2344 7.49303 13.2344 6.28911 13.9783 5.54662C14.7224 4.80412 15.9284 4.80412 16.6725 5.54662C17.4163 6.28911 17.4163 7.49303 16.6725 8.23552Z" fill="#9C4DF4"/>
<path d="M19.2747 11.1168C19.0426 11.1168 18.8105 11.0283 18.6338 10.8509C18.2804 10.497 18.2811 9.92369 18.6349 9.57052C19.352 8.85481 19.7468 7.90335 19.7468 6.89146C19.7468 5.87957 19.352 4.92811 18.6349 4.2124C18.2811 3.85901 18.2804 3.28589 18.6338 2.93181C18.987 2.57795 19.5603 2.57727 19.9142 2.93066C20.9741 3.98855 21.5578 5.39503 21.5578 6.89146C21.5578 8.38766 20.9741 9.79437 19.9142 10.8523C19.7375 11.0287 19.5061 11.1168 19.2747 11.1168Z" fill="#9C4DF4"/>
<path d="M21.323 13.7824C21.0909 13.7824 20.8588 13.6938 20.6821 13.5167C20.3287 13.1626 20.3294 12.5895 20.6833 12.2361C22.1138 10.8083 22.9018 8.9102 22.9018 6.89123C22.9018 4.87227 22.1138 2.97415 20.6833 1.54638C20.3294 1.19299 20.3287 0.61987 20.6821 0.265789C21.0355 -0.0880618 21.6086 -0.0887485 21.9625 0.264645C23.7359 2.03459 24.7127 4.38795 24.7125 6.89123C24.7125 9.39451 23.7359 11.7481 21.9625 13.518C21.7858 13.6943 21.5544 13.7824 21.323 13.7824Z" fill="#9C4DF4"/>
<path d="M11.3712 11.116C11.1398 11.116 10.9084 11.0278 10.7315 10.8514C9.67154 9.79348 9.08789 8.38677 9.08789 6.89057C9.08789 5.39414 9.67154 3.98766 10.7315 2.92977C11.0853 2.57638 11.6587 2.57683 12.0119 2.93091C12.3653 3.28477 12.3646 3.85811 12.0107 4.21151C11.2936 4.92722 10.8988 5.87868 10.8988 6.89057C10.8988 7.90246 11.2936 8.85392 12.0107 9.56963C12.3646 9.9228 12.3653 10.4961 12.0119 10.85C11.8352 11.0272 11.6031 11.116 11.3712 11.116Z" fill="#9C4DF4"/>
<path d="M9.32334 13.7835C9.09171 13.7835 8.86031 13.6954 8.68361 13.5189C6.91023 11.749 5.93359 9.3956 5.93359 6.89232C5.93359 4.38881 6.91023 2.03545 8.68361 0.265507C9.03747 -0.0876575 9.61082 -0.0871997 9.96398 0.26688C10.3174 0.620732 10.3167 1.19385 9.96284 1.54725C8.53232 2.97501 7.74428 4.87313 7.74428 6.89209C7.74428 8.91106 8.53232 10.8094 9.96284 12.2372C10.3167 12.5906 10.3174 13.1637 9.96398 13.5178C9.78728 13.6949 9.5552 13.7835 9.32334 13.7835Z" fill="#9C4DF4"/>
<path d="M27.2566 15.3477H3.38955C2.21974 15.3477 1.27148 16.2959 1.27148 17.4655V27.8817C1.27148 29.0515 2.21974 29.9997 3.38955 29.9997H27.2564C28.4262 29.9997 29.3744 29.0515 29.3744 27.8817V17.4655C29.3744 16.2959 28.4262 15.3477 27.2566 15.3477ZM8.23657 27.2822H4.90063C4.40075 27.2822 3.9954 26.8769 3.9954 26.3768V18.9706C3.9954 18.4707 4.40075 18.0652 4.90063 18.0652C5.40073 18.0652 5.80608 18.4705 5.80608 18.9706V25.4713H8.23657C8.73668 25.4713 9.14203 25.8767 9.14203 26.3768C9.14203 26.8769 8.73668 27.2822 8.23657 27.2822ZM11.9472 26.3768C11.9472 26.8769 11.5418 27.2822 11.0417 27.2822C10.5416 27.2822 10.1363 26.8769 10.1363 26.3768V18.9706C10.1363 18.4707 10.5416 18.0652 11.0417 18.0652C11.5418 18.0652 11.9472 18.4705 11.9472 18.9706V26.3768ZM19.5653 19.2325L17.3293 26.6384C17.3291 26.6391 17.3289 26.6397 17.3287 26.6404C17.0858 27.4692 15.8478 27.4488 15.5965 26.6404C15.5963 26.6397 15.596 26.6391 15.5958 26.6384L13.3599 19.2325C13.2154 18.7536 13.4862 18.2485 13.965 18.1038C14.4434 17.9594 14.949 18.2302 15.0934 18.709L16.4626 23.2438L17.8317 18.709C17.9764 18.2302 18.4815 17.9592 18.9603 18.1038C19.4389 18.2485 19.7099 18.7536 19.5653 19.2325ZM25.1356 21.302C25.6357 21.302 26.041 21.7074 26.041 22.2075C26.041 22.7073 25.6357 23.1129 25.1356 23.1129H22.5661V25.4713H25.6233C26.1234 25.4713 26.5288 25.8767 26.5288 26.3768C26.5288 26.8769 26.1234 27.2822 25.6233 27.2822H21.6607C21.1606 27.2822 20.7552 26.8769 20.7552 26.3768V18.9706C20.7552 18.4707 21.1606 18.0652 21.6607 18.0652H25.7453C26.2452 18.0652 26.6508 18.4705 26.6508 18.9706C26.6508 19.4707 26.2452 19.8761 25.7453 19.8761H22.5659V21.302H25.1356Z" fill="#9C4DF4"/>
</svg>
