<svg width="50" height="50" viewBox="0 0 50 50" fill="none" xmlns="http://www.w3.org/2000/svg">
<path d="M45.463 49.9988H30.6473C28.4178 49.9988 26.6104 48.1914 26.6104 45.9619V31.1463C26.6104 28.9168 28.4178 27.1094 30.6473 27.1094H45.4629C47.6924 27.1094 49.4998 28.9168 49.4998 31.1463V45.9619C49.4999 48.1914 47.6925 49.9988 45.463 49.9988Z" fill="#BDF4E3"/>
<path d="M44.1495 46.433H31.9604C30.9756 46.433 30.1772 45.6347 30.1772 44.6499V32.4608C30.1772 31.4761 30.9756 30.6777 31.9604 30.6777H44.1495C45.1343 30.6777 45.9326 31.4761 45.9326 32.4608V44.65C45.9326 45.6347 45.1343 46.433 44.1495 46.433Z" fill="#FFDCB6"/>
<path d="M45.4634 27.1094H41.0953C42.8083 27.1094 44.1969 28.498 44.1969 30.2109V41.5939C44.1969 43.3069 42.8083 44.6955 41.0953 44.6955H29.7124C27.9994 44.6955 26.6108 43.3068 26.6108 41.5939V45.9619C26.6108 48.1914 28.4183 49.9988 30.6478 49.9988H45.4634C47.6929 49.9988 49.5003 48.1914 49.5003 45.9619V31.1463C49.5003 28.9167 47.6929 27.1094 45.4634 27.1094Z" fill="#B1B7E3"/>
<path d="M44.1968 30.6797V41.5948C44.1968 43.3077 42.8082 44.6964 41.0952 44.6964H30.1802C30.2053 45.6593 30.9919 46.4326 31.9609 46.4326H44.1501C45.1349 46.4326 45.9332 45.6343 45.9332 44.6495V32.4605C45.9331 31.4914 45.1598 30.7048 44.1968 30.6797Z" fill="#EFA5B6"/>
<path d="M42.5264 27.0877H27.7107C25.4813 27.0877 23.6738 25.2803 23.6738 23.0508V8.23516C23.6738 6.00566 25.4813 4.19824 27.7107 4.19824H42.5265C44.756 4.19824 46.5634 6.00566 46.5634 8.23516V23.0509C46.5633 25.2804 44.756 27.0877 42.5264 27.0877Z" fill="#EF8BBD"/>
<path d="M41.2134 23.52H29.0243C28.0396 23.52 27.2412 22.7217 27.2412 21.7369V9.54775C27.2412 8.56299 28.0396 7.76465 29.0243 7.76465H41.2134C42.1981 7.76465 42.9965 8.56299 42.9965 9.54775V21.7369C42.9965 22.7217 42.1981 23.52 41.2134 23.52Z" fill="#FFDCB6"/>
<path d="M42.5265 4.19824H38.1584C39.8714 4.19824 41.26 5.58691 41.26 7.2998V18.6828C41.26 20.3957 39.8713 21.7844 38.1584 21.7844H26.7754C25.0625 21.7844 23.6738 20.3957 23.6738 18.6828V23.0508C23.6738 25.2803 25.4813 27.0877 27.7107 27.0877H42.5265C44.756 27.0877 46.5634 25.2803 46.5634 23.0508V8.23516C46.5633 6.00566 44.756 4.19824 42.5265 4.19824Z" fill="#E068BD"/>
<path d="M41.2602 7.76758V18.6827C41.2602 20.3956 39.8716 21.7843 38.1586 21.7843H27.2417C27.2668 22.7472 28.0553 23.5205 29.0242 23.5205H41.2133C42.198 23.5205 42.9964 22.7222 42.9964 21.7374V9.54834C42.9964 8.57939 42.223 7.79268 41.2602 7.76758Z" fill="#EFA5B6"/>
<path d="M19.3526 49.9988H4.53691C2.30742 49.9988 0.5 48.1914 0.5 45.9619V31.1463C0.5 28.9168 2.30742 27.1094 4.53691 27.1094H19.3526C21.5821 27.1094 23.3895 28.9168 23.3895 31.1463V45.9619C23.3895 48.1914 21.5821 49.9988 19.3526 49.9988Z" fill="#CAB4EF"/>
<path d="M18.0392 46.4311H5.85C4.86523 46.4311 4.06689 45.6327 4.06689 44.6479V32.4589C4.06689 31.4741 4.86523 30.6758 5.85 30.6758H18.0392C19.0239 30.6758 19.8223 31.4741 19.8223 32.4589V44.648C19.8223 45.6327 19.0239 46.4311 18.0392 46.4311Z" fill="#FFDCB6"/>
<path d="M19.3535 27.1094H14.9854C16.6984 27.1094 18.087 28.498 18.087 30.2109V41.5939C18.087 43.3069 16.6984 44.6955 14.9854 44.6955H3.60254C1.88955 44.6955 0.500977 43.3069 0.500977 41.5939V45.962C0.500879 48.1914 2.3083 49.9988 4.53779 49.9988H19.3535C21.583 49.9988 23.3904 48.1915 23.3904 45.9619V31.1463C23.3903 28.9168 21.583 27.1094 19.3535 27.1094Z" fill="#BE87EF"/>
<path d="M18.0859 30.6787V41.5938C18.0859 43.3067 16.6974 44.6953 14.9844 44.6953H4.06934C4.09443 45.6582 4.88105 46.4315 5.8501 46.4315H18.0393C19.024 46.4315 19.8224 45.6332 19.8224 44.6484V32.4595C19.8223 31.4904 19.0489 30.7037 18.0859 30.6787Z" fill="#EFA5B6"/>
<path d="M6.74268 38.8779C6.20332 38.8779 5.76611 38.4406 5.76611 37.9014V36.6943C5.76611 36.1551 6.20332 35.7178 6.74268 35.7178C7.28203 35.7178 7.71924 36.1551 7.71924 36.6943V37.9014C7.71924 38.4407 7.28203 38.8779 6.74268 38.8779Z" fill="white"/>
<path d="M6.74268 34.8149C6.20332 34.8149 5.76611 34.3776 5.76611 33.8384V33.3955C5.76611 32.8562 6.20332 32.4189 6.74268 32.4189C7.28203 32.4189 7.71924 32.8562 7.71924 33.3955V33.8384C7.71924 34.3777 7.28203 34.8149 6.74268 34.8149Z" fill="white"/>
<path d="M39.0825 44.64C38.5634 44.6063 38.171 44.1522 38.171 43.632V34.4209H36.9964C36.4762 34.4209 36.022 34.0284 35.9884 33.5095C35.9515 32.9407 36.402 32.4678 36.9629 32.4678H39.2381C39.7275 32.4678 40.1242 32.8645 40.1242 33.3538V43.6655C40.1241 44.2264 39.6512 44.6769 39.0825 44.64Z" fill="#D58A9C"/>
<path d="M34.6441 21.8325C32.684 21.8325 32.5402 21.7844 32.4084 21.7405C32.0831 21.6321 31.8399 21.3861 31.7412 21.0657C31.5712 20.513 31.8096 20.2009 32.4467 19.3667C32.9665 18.686 33.9342 17.4191 35.5557 15.1023C36.0379 14.4134 36.3488 13.7964 36.4805 13.2673L36.5153 12.9931C36.4863 12.1147 35.7628 11.4091 34.8776 11.4091C34.096 11.4091 33.4196 11.9644 33.2695 12.7292C33.1654 13.2585 32.6518 13.6032 32.1231 13.4993C31.5938 13.3954 31.249 12.8821 31.353 12.3529C31.6826 10.6744 33.165 9.45605 34.8776 9.45605C36.8581 9.45605 38.4694 11.0674 38.4694 13.048V13.1102L38.4049 13.616L38.3938 13.6641C38.2121 14.4476 37.7956 15.3083 37.1558 16.2224C35.942 17.9566 35.0883 19.1125 34.5118 19.8772C35.4765 19.8737 36.7359 19.8686 37.9139 19.8538C37.9181 19.8537 37.9223 19.8537 37.9265 19.8537C38.4601 19.8537 38.896 20.2829 38.9026 20.818C38.9094 21.3572 38.4777 21.8 37.9385 21.8067C36.4812 21.8249 35.4201 21.8325 34.6441 21.8325Z" fill="#D58A9C"/>
<path d="M11.9449 39.5314C11.4055 39.5314 10.9683 39.0941 10.9683 38.5549C10.9683 38.0156 11.4055 37.5783 11.9449 37.5783C12.8486 37.5783 13.5837 36.8432 13.5837 35.9395C13.5837 35.0358 12.8486 34.3007 11.9449 34.3007C11.1633 34.3007 10.4871 34.856 10.3369 35.6208C10.233 36.15 9.72007 36.4953 9.19038 36.3909C8.66118 36.287 8.31636 35.7737 8.42036 35.2445C8.74995 33.566 10.2323 32.3477 11.9449 32.3477C13.9255 32.3477 15.5369 33.959 15.5369 35.9395C15.537 37.9201 13.9255 39.5314 11.9449 39.5314Z" fill="#D58A9C"/>
<path d="M11.9449 44.7619C10.1629 44.7619 8.6335 43.4326 8.3876 41.6697C8.36465 41.5055 8.35303 41.3373 8.35303 41.1699C8.35303 40.6307 8.79023 40.1934 9.32959 40.1934C9.86895 40.1934 10.3062 40.6307 10.3062 41.1699C10.3062 41.2471 10.3115 41.3243 10.322 41.3995C10.4341 42.2031 11.1318 42.8089 11.945 42.8089C12.8487 42.8089 13.5839 42.0737 13.5839 41.17C13.5839 40.2664 12.8487 39.5312 11.945 39.5312C11.4057 39.5312 10.9685 39.0939 10.9685 38.5547C10.9685 38.0154 11.4057 37.5781 11.945 37.5781C13.9257 37.5781 15.537 39.1895 15.537 41.17C15.537 43.1506 13.9256 44.7619 11.9449 44.7619Z" fill="#D58A9C"/>
<path d="M17.2369 0.253198L18.087 2.64343C18.1234 2.74578 18.1955 2.82683 18.2864 2.86785L20.4101 3.82468C20.7101 3.95984 20.7101 4.43787 20.4101 4.57302L18.2864 5.52986C18.1955 5.57078 18.1234 5.65193 18.087 5.75427L17.2369 8.1446C17.1168 8.4823 16.6921 8.4823 16.572 8.1446L15.7219 5.75427C15.6854 5.65193 15.6134 5.57087 15.5225 5.52986L13.3988 4.57302C13.0988 4.43787 13.0988 3.95984 13.3988 3.82468L15.5225 2.86785C15.6134 2.82683 15.6854 2.74578 15.7219 2.64343L16.5721 0.253198C16.6922 -0.0843994 17.1169 -0.0843994 17.2369 0.253198Z" fill="#F7C4DB"/>
<path d="M6.57632 21.0203C6.96894 20.0731 6.51931 18.9869 5.57205 18.5943C4.62478 18.2016 3.53859 18.6512 3.14596 19.5984C2.75334 20.5456 3.20297 21.6318 4.15023 22.0244C5.0975 22.4171 6.18369 21.9675 6.57632 21.0203Z" fill="#EF8BBD"/>
<path d="M8.81216 7.89173C8.88162 7.46326 8.59058 7.05961 8.16211 6.99015C7.73364 6.92069 7.32999 7.21173 7.26053 7.6402C7.19107 8.06867 7.48211 8.47232 7.91058 8.54178C8.33905 8.61124 8.7427 8.3202 8.81216 7.89173Z" fill="#EF8BBD"/>
<path d="M12.1916 14.8129L12.8222 16.5859C12.8491 16.6618 12.9027 16.7219 12.97 16.7523L14.5453 17.4621C14.7679 17.5624 14.7679 17.917 14.5453 18.0173L12.97 18.727C12.9026 18.7574 12.8491 18.8176 12.8222 18.8934L12.1916 20.6665C12.1026 20.917 11.7875 20.917 11.6984 20.6665L11.0678 18.8934C11.0408 18.8176 10.9873 18.7574 10.9199 18.727L9.34465 18.0173C9.12209 17.917 9.12209 17.5624 9.34465 17.4621L10.9199 16.7523C10.9874 16.7219 11.0408 16.6618 11.0678 16.5859L11.6984 14.8129C11.7874 14.5624 12.1025 14.5624 12.1916 14.8129Z" fill="#F7C4DB"/>
</svg>
