<svg width="30" height="24" viewBox="0 0 30 24" fill="none" xmlns="http://www.w3.org/2000/svg">
<path d="M15.009 21.3515C15.009 21.88 14.7037 22.3601 14.2258 22.5842C14.041 22.6716 13.8431 22.7139 13.6464 22.7139C13.3349 22.7139 13.0263 22.6068 12.777 22.4001L5.32911 16.2285H1.36235C0.610073 16.2291 0 15.6187 0 14.8664V9.43865C0 8.68606 0.610073 8.07598 1.36235 8.07598H5.32943L12.7774 1.90431C13.1843 1.56703 13.7486 1.49512 14.2261 1.72084C14.7037 1.94494 15.0094 2.42539 15.0094 2.95356L15.009 21.3515ZM20.2446 19.2227C20.2114 19.225 20.1795 19.2263 20.1466 19.2263C19.7868 19.2263 19.4398 19.0841 19.1835 18.8274L19.0013 18.6446C18.5234 18.1677 18.4673 17.4122 18.8697 16.8698C19.8899 15.4942 20.4284 13.8636 20.4284 12.153C20.4284 10.3131 19.8171 8.58739 18.6601 7.16216C18.2197 6.62045 18.2603 5.83367 18.7539 5.34033L18.9358 5.15814C19.208 4.886 19.5726 4.73767 19.9673 4.76121C20.3517 4.78055 20.7106 4.96145 20.9543 5.25939C22.5592 7.2231 23.4069 9.60729 23.4069 12.1533C23.4069 14.5246 22.6572 16.7818 21.2384 18.6797C21.0014 18.996 20.639 19.1947 20.2446 19.2227ZM25.8772 23.4329C25.6308 23.7241 25.2745 23.8989 24.8931 23.915C24.8743 23.9156 24.8553 23.9163 24.836 23.9163C24.4752 23.9163 24.1289 23.7738 23.8725 23.5174L23.6935 23.3385C23.1934 22.8387 23.1596 22.0393 23.6142 21.4982C25.8114 18.8851 27.0219 15.5665 27.0219 12.153C27.0219 8.60254 25.7259 5.18458 23.3737 2.52889C22.8968 1.98976 22.921 1.17364 23.4285 0.664172L23.6071 0.485213C23.8722 0.21887 24.2166 0.0721559 24.6116 0.0847314C24.9866 0.0953722 25.3413 0.261111 25.5905 0.541641C28.4339 3.74291 30 7.86704 30 12.153C30.0006 16.2768 28.5364 20.2829 25.8772 23.4329Z" fill="#FF6652"/>
</svg>
